<svg xmlns="http://www.w3.org/2000/svg" viewBox="0 0 200 200" width="200" height="200">
  <g transform="translate(25, 25) scale(1.5)" opacity="0.3">
    <path d="M72 85c-8 0-18-2-26-8-12-9-18-22-16-38 1-8 4-14 8-18 3-3 6-5 10-6 2-1 4 0 5 1 2 2 1 5-1 6-3 1-5 3-7 5-3 3-5 8-6 14-1 13 3 23 13 31 6 5 14 7 20 7 3 0 5 2 5 5s-2 5-5 5l-2-1c1 0 2-1 2-3z" fill="#D6B26A"/>
    <path d="M48 22c-2-4-5-7-9-9-3-2-7-3-11-3-2 0-4-2-4-4s2-4 4-4c5 0 10 1 15 4 5 3 9 7 11 12 1 2 0 5-2 6s-5 0-6-2z" fill="#D6B26A"/>
    <path d="M38 42c-4-8-2-18 4-24 3-3 7-5 11-5" fill="none" stroke="#D6B26A" stroke-width="2.5"/>
  </g>
</svg>
